HIERARCHY
ROOT Hips
{
	OFFSET 0.00000 0.00000 0.00000
	CHANNELS 6 Xposition Yposition Zposition Zrotation Yrotation Xrotation 
	JOINT LHipJoint
	{
		OFFSET 0 0 0
		CHANNELS 3 Zrotation Yrotation Xrotation
		JOINT LeftHip
		{
			OFFSET 1.38280 -1.96574 0.54427
			CHANNELS 3 Zrotation Yrotation Xrotation
			JOINT LeftKnee
			{
				OFFSET 2.72096 -7.47578 0.00000
				CHANNELS 3 Zrotation Yrotation Xrotation
				JOINT LeftAnkle
				{
					OFFSET 2.73041 -7.50176 0.00000
					CHANNELS 3 Zrotation Yrotation Xrotation
					JOINT LeftToe
					{
						OFFSET 0.16150 -0.44371 2.18031
						CHANNELS 3 Zrotation Yrotation Xrotation
						End Site
						{
							OFFSET 0.00000 -0.00000 1.12127
						}
					}
				}
			}
		}
	}
	JOINT RHipJoint
	{
		OFFSET 0 0 0
		CHANNELS 3 Zrotation Yrotation Xrotation
		JOINT RightHip
		{
			OFFSET -1.57224 -1.96575 0.54427
			CHANNELS 3 Zrotation Yrotation Xrotation
			JOINT RightKnee
			{
				OFFSET -2.95935 -8.13076 0.00000
				CHANNELS 3 Zrotation Yrotation Xrotation
				JOINT RightAnkle
				{
					OFFSET -2.52345 -6.93311 0.00000
					CHANNELS 3 Zrotation Yrotation Xrotation
					JOINT RightToe
					{
						OFFSET -0.04475 -0.10171 1.86688
						CHANNELS 3 Zrotation Yrotation Xrotation
						End Site
						{
							OFFSET -0.00000 -0.00000 0.95157
						}
					}
				}
			}
		}
	}
	JOINT lowerback
	{
		OFFSET 0 0 0
		CHANNELS 3 Zrotation Yrotation Xrotation
		JOINT Chest
		{
			OFFSET 0.00669 2.07367 0.09104
			CHANNELS 3 Zrotation Yrotation Xrotation
			JOINT Chest2
			{
				OFFSET -0.00664 2.06198 -0.04732
				CHANNELS 3 Zrotation Yrotation Xrotation
				JOINT lowerneck
				{
					OFFSET 0 0 0
					CHANNELS 3 Zrotation Yrotation Xrotation
					JOINT Neck
					{
						OFFSET -0.00021 1.49948 0.16345
						CHANNELS 3 Zrotation Yrotation Xrotation
						JOINT Head
						{
							OFFSET 0.06080 1.50567 -0.26702
							CHANNELS 3 Zrotation Yrotation Xrotation
							End Site
							{
								OFFSET 0.01726 1.56470 -0.11854
							}
						}
					}
				}
				JOINT LeftCollar
				{
					OFFSET 0 0 0
					CHANNELS 3 Zrotation Yrotation Xrotation
					JOINT LeftShoulder
					{
						OFFSET 3.14993 0.82932 -0.22488
CHANNELS 3 Zrotation Xrotation Yrotation
						JOINT LeftElbow
						{
OFFSET 0 -5.682360 -0.000000
CHANNELS 3 Zrotation Xrotation Yrotation
							JOINT LeftWrist
							{
OFFSET 0 -3.171120 0.000000
CHANNELS 3 Zrotation Xrotation Yrotation
								JOINT lhand
								{
									OFFSET 0 0 0
CHANNELS 3 Zrotation Xrotation Yrotation
									JOINT LFingers
									{
OFFSET 0 -0.632690 0.000000
CHANNELS 3 Zrotation Xrotation Yrotation
										End Site
										{
OFFSET 0 -0.510090 0.000000
										}
									}
								}
								JOINT LThumb
								{
OFFSET 0 0.000000 0.000000
CHANNELS 3 Zrotation Xrotation Yrotation
									End Site
									{
OFFSET 0 -0.517880 0.517880
									}
								}
							}
						}
					}
				}
				JOINT RightCollar
				{
					OFFSET 0 0 0
					CHANNELS 3 Zrotation Yrotation Xrotation
					JOINT RightShoulder
					{
						OFFSET -3.10571 0.91279 -0.33334
CHANNELS 3 Zrotation Xrotation Yrotation
						JOINT RightElbow
						{
OFFSET 0 -5.871200 -0.000000
CHANNELS 3 Zrotation Xrotation Yrotation
							JOINT RightWrist
							{
OFFSET 0 -3.375890 0.000000
CHANNELS 3 Zrotation Xrotation Yrotation
								JOINT rhand
								{
									OFFSET 0 0 0
CHANNELS 3 Zrotation Xrotation Yrotation
									JOINT RFingers
									{
OFFSET 0 -0.603260 0.000000
CHANNELS 3 Zrotation Xrotation Yrotation
										End Site
										{
OFFSET 0 -0.486360 0.000000
										}
									}
								}
								JOINT RThumb
								{
OFFSET 0 0.000000 0.000000
CHANNELS 3 Zrotation Xrotation Yrotation
									End Site
									{
OFFSET 0 -0.493790 0.493790
									}
								}
							}
						}
					}
				}
			}
		}
	}
}
MOTION
Frames: 5
Frame Time: 0.008333333333333333
5.307300 18.304500 -2.636000 -164.319000 -83.548300 172.543000 0.000000 0.000000 0.000000 -17.575400 -5.377100 -11.500200 2.794200 10.354200 30.131400 2.137400 -2.843300 -26.927600 1.034300 -6.468500 -18.149900 0.000000 0.000000 0.000000 21.918500 14.757400 -14.038000 -2.575600 -9.974100 28.893000 0.126300 8.048500 8.290700 -6.075900 -14.501500 45.285600 -0.284200 -0.284300 -4.420800 2.203800 -0.442600 0.096600 2.398400 -0.247200 2.598300 0.204800 2.177000 -15.339500 -3.273900 3.515500 22.291000 -0.741800 1.161100 9.654400 -0.000000 0.000000 0.000000 3.399200 3.540700 -31.288800 19.521200 -30.061200 5.289400 17.237000 -7.716400 -33.159900 0.000000 0.000000 0.000000 -7.125000 0.000000 0.000000 -18.804600 63.397200 8.545900 -0.000000 0.000000 0.000000 -10.610700 5.056500 1.517400 -21.714800 -32.653200 -6.431300 -13.243200 16.973200 -29.034900 0.000000 0.000000 0.000000 7.125000 0.000000 -0.000000 10.189100 0.693700 10.228700
4.855373 18.213130 -3.110189 -129.890997 -89.102190 136.966639 0.000000 0.000000 0.000000 -16.082909 -5.112354 -23.453552 7.684688 15.881523 51.417358 1.318370 0.103021 -21.757745 0.797662 -5.700551 -15.917929 0.000000 0.000000 0.000000 23.224722 10.584525 -12.393049 -2.773723 -10.319456 30.017583 0.381217 11.328064 7.599054 -6.040864 -14.467829 45.145533 0.825639 0.162406 -3.713560 3.316739 0.043171 0.683362 2.956361 -0.011269 2.785642 0.003999 0.892700 -16.601378 -3.001643 1.717064 25.872457 -0.877379 0.249383 11.160846 0.000000 0.000000 0.000000 3.025920 3.020315 -34.547503 18.119050 -28.309316 4.605512 14.127970 -5.008436 -33.596645 0.000000 0.000000 0.000000 -7.125000 0.000000 0.000000 -22.642152 62.987475 10.156686 0.000000 0.000000 0.000000 -0.693310 3.574598 -1.196614 -14.484201 -23.422617 -3.018004 -23.148244 17.170000 -29.351405 0.000000 0.000000 0.000000 7.125000 0.000000 0.000000 4.453466 -1.385795 4.573726
4.206090 18.211396 -3.445925 -5.885549 -89.166286 12.707452 0.000000 0.000000 0.000000 -16.857624 -6.790616 -32.564667 8.601287 16.543812 54.700250 1.320933 1.181659 -22.177348 0.718124 -5.414271 -15.094123 0.000000 0.000000 0.000000 24.442502 9.282227 -8.484030 -2.329824 -9.521715 27.441451 0.547206 13.045342 6.302514 -5.999489 -14.427885 44.979742 1.910994 0.831979 -4.144082 2.793522 0.893364 0.572371 1.862415 0.437538 2.899349 0.692444 1.113237 -15.960359 -2.329478 1.497877 29.878602 -0.832427 0.200748 12.591856 0.000000 0.000000 0.000000 1.505533 5.513728 -29.714650 17.295947 -27.246168 4.222009 20.179652 -1.520024 -31.628241 0.000000 0.000000 0.000000 -7.125000 0.000000 0.000000 -14.203319 62.701553 6.173040 0.000000 0.000000 0.000000 -0.942394 3.670101 8.813903 -15.986398 -25.501677 -3.640415 -26.164700 12.968307 -29.837589 0.000000 0.000000 0.000000 7.125000 0.000000 0.000000 2.785533 -2.567078 2.910819
3.419793 18.234668 -3.706194 -120.099980 -89.445273 128.185336 0.000000 0.000000 0.000000 -19.605943 -7.270371 -36.736418 4.037925 12.207731 36.475133 1.344642 2.796401 -23.070283 0.549448 -4.748382 -13.192217 0.000000 0.000000 0.000000 25.684668 6.789234 -5.344730 -1.573507 -7.914197 22.453891 0.401824 11.750314 8.297416 -5.877162 -14.308231 44.486602 2.093703 1.391915 -4.136991 2.286631 1.662620 0.258661 1.281817 0.829322 2.577809 1.257501 1.750241 -15.197402 -1.854356 2.175553 27.967574 -0.629741 0.681364 11.686521 0.000000 0.000000 0.000000 0.654375 7.874279 -29.205438 16.292015 -25.914910 3.772645 14.141511 -4.498906 -32.384459 0.000000 0.000000 0.000000 -7.125000 0.000000 0.000000 -21.511672 61.883099 9.063082 0.000000 0.000000 0.000000 -6.819072 3.375015 19.163432 -19.739707 -30.327424 -5.399306 -23.908070 5.698943 -29.782210 0.000000 0.000000 0.000000 7.125000 0.000000 0.000000 4.076509 -1.994879 4.226549
2.411421 18.210088 -3.912288 -136.309312 -87.319785 145.684611 0.000000 0.000000 0.000000 -23.087512 -6.315903 -37.737416 0.945128 6.190892 17.339441 0.771301 4.172057 -18.616369 0.599342 -4.955509 -13.781674 0.000000 0.000000 0.000000 27.343646 3.145400 -0.656430 -0.705842 -5.369698 14.966135 0.015662 7.990879 11.063687 -6.025254 -14.452767 45.083162 2.248193 1.825280 -4.636848 1.977008 2.222827 0.366332 0.933564 1.116187 2.984202 1.649440 2.042029 -15.576061 -2.022238 2.563263 27.289639 -0.694281 0.893669 11.517254 0.000000 0.000000 0.000000 -0.407930 7.777369 -22.315302 15.431604 -24.743971 3.404533 6.666731 -6.232233 -34.016977 0.000000 0.000000 0.000000 -7.125000 0.000000 0.000000 -30.893966 61.470906 13.078444 0.000000 0.000000 0.000000 -9.818333 0.072307 14.180057 -18.024334 -28.188263 -4.560722 -24.813344 6.701592 -28.441537 0.000000 0.000000 0.000000 7.125000 0.000000 0.000000 3.351639 -0.799127 3.403941
